<?xml version="1.0" encoding="utf-8"?>
<svg width="361" height="61" viewBox="0 0 361 61" fill="none" xmlns="http://www.w3.org/2000/svg">
  <path d="M262.41 8.465C261.5 8.465 260.785 8.595 260.265 8.855C259.788 9.115 259.442 9.7 259.225 10.61C259.052 11.52 258.965 12.9717 258.965 14.965V21.335C258.965 22.9817 258.705 24.4117 258.185 25.625C257.708 26.795 257.145 27.7483 256.495 28.485C255.845 29.2217 255.238 29.785 254.675 30.175C255.152 30.5217 255.715 31.0633 256.365 31.8C257.058 32.4933 257.665 33.36 258.185 34.4C258.705 35.3967 258.965 36.5233 258.965 37.78V45.58C258.965 47.53 259.052 48.96 259.225 49.87C259.442 50.78 259.788 51.365 260.265 51.625C260.785 51.885 261.5 52.015 262.41 52.015H264.815V59.945H259.68C258.467 59.945 257.253 59.9233 256.04 59.88C254.87 59.8367 253.787 59.5983 252.79 59.165C251.793 58.775 250.992 58.0167 250.385 56.89C249.822 55.8067 249.54 54.225 249.54 52.145V41.42C249.54 39.47 249.107 37.7367 248.24 36.22C247.373 34.66 246.052 33.8583 244.275 33.815V26.275C246.052 26.2317 247.373 25.4517 248.24 23.935C249.107 22.4183 249.54 20.6633 249.54 18.67V8.4C249.54 6.32 249.822 4.73833 250.385 3.655C250.948 2.57166 251.707 1.81333 252.66 1.38C253.657 0.946665 254.762 0.708331 255.975 0.664996C257.188 0.57833 258.423 0.534998 259.68 0.534998H264.815V8.465H262.41ZM310.872 30.76C310.872 35.18 310.33 39.3183 309.247 43.175C308.207 47.0317 306.863 50.455 305.217 53.445C303.57 56.4783 301.815 58.97 299.952 60.92L292.477 57.475C295.033 54.5283 297.157 50.845 298.847 46.425C300.537 41.9617 301.382 36.74 301.382 30.76C301.382 24.78 300.537 19.58 298.847 15.16C297.157 10.6967 295.033 7.01333 292.477 4.11L299.952 0.599997C301.815 2.55 303.57 5.04166 305.217 8.075C306.863 11.1083 308.207 14.5533 309.247 18.41C310.33 22.2233 310.872 26.34 310.872 30.76Z" fill="#6610F2"/>
  <text style="fill: rgb(255, 255, 255); font-family: Arial, sans-serif; font-size: 32.8px; font-weight: 700; white-space: pre;" transform="matrix(2.103399, 0, 0, 2.172525, -10.136299, -1.227256)" x="6.578" y="26.931">William</text>
  <text style="fill: rgb(255, 255, 255); font-family: Arial, sans-serif; font-size: 27.8px; font-weight: 700; white-space: pre;" transform="matrix(2.006194, 0, 0, 2.007454, 299.461823, 2.857323)" x="6.578" y="26.931">io</text>
  <text style="white-space: pre; fill: rgb(51, 51, 51); font-family: Arial, sans-serif; font-size: 5.8px;" x="242.585" y="87.577"> </text>
</svg>